<svg width="203" height="185" viewBox="0 0 203 185" fill="none" xmlns="http://www.w3.org/2000/svg">
<g clip-path="url(#clip0_292_2)">
<path fill-rule="evenodd" clip-rule="evenodd" d="M63.2916 0H97.8361C101.451 0 104.408 2.95052 104.408 6.55689V33.8042H56.7195V6.55689C56.7195 2.95052 59.6769 0 63.2916 0Z" fill="#34B169"/>
<path fill-rule="evenodd" clip-rule="evenodd" d="M124.332 13.7419C137.695 13.7419 149.107 22.0682 153.649 33.8042H95.0143C99.5556 22.0682 110.968 13.7419 124.332 13.7419Z" fill="#4C80BF"/>
<path fill-rule="evenodd" clip-rule="evenodd" d="M161.503 4.32825C179.115 4.32825 193.742 17.0639 196.642 33.8089L196.522 33.8042H126.364C129.266 17.0627 143.893 4.32825 161.503 4.32825Z" fill="#FFD448"/>
<path d="M60.1574 110.247L41.4077 42.5082C41.146 41.7948 41.0126 41.0409 41.0136 40.2812C41.0136 36.7053 43.9218 33.8042 47.5056 33.8042H196.522C197.033 33.8196 197.552 33.8794 198.069 34.0067C201.543 34.8592 203.665 38.3595 202.811 41.8247L186.012 109.632C185.487 112.682 182.822 115.003 179.615 115.003H66.3953V114.984C63.5565 114.985 60.95 113.108 60.1574 110.247Z" fill="#FB5541"/>
<path fill-rule="evenodd" clip-rule="evenodd" d="M89.0841 153.345C97.8452 153.345 104.949 160.43 104.949 169.173C104.949 177.913 97.8452 185 89.0841 185C80.3214 185 73.2184 177.913 73.2184 169.173C73.2184 160.43 80.3214 153.345 89.0841 153.345ZM158.637 153.345C167.4 153.345 174.501 160.43 174.501 169.173C174.501 177.913 167.4 185 158.637 185C149.875 185 142.772 177.913 142.772 169.173C142.772 160.43 149.875 153.345 158.637 153.345Z" fill="#333333"/>
<path d="M89.5413 62.7715C89.3751 60.268 91.2735 58.1007 93.7828 57.9349C96.2922 57.7692 98.4641 59.6628 98.6307 62.1667L100.262 86.3587C100.429 88.8622 98.5303 91.0295 96.021 91.1953C93.5116 91.3614 91.3397 89.4674 91.1732 86.9639L89.5413 62.7715ZM119.383 62.4689C119.383 59.9563 121.427 57.9167 123.946 57.9167C126.465 57.9167 128.509 59.9563 128.509 62.4689V86.6613C128.509 89.1743 126.465 91.2139 123.946 91.2139C121.427 91.2139 119.383 89.1743 119.383 86.6613V62.4689ZM149.261 62.1667C149.427 59.6628 151.6 57.7692 154.109 57.9349C156.618 58.1007 158.516 60.268 158.35 62.7715L156.718 86.9639C156.552 89.4674 154.38 91.3614 151.871 91.1953C149.361 91.0295 147.463 88.8622 147.629 86.3587L149.261 62.1667Z" fill="#B73E30"/>
<path d="M6.49045 20.7012C2.90663 20.7012 0 17.8013 0 14.2258C0 10.6503 2.90663 7.75037 6.49045 7.75037H23.3819L24.0301 7.7828C29.9306 7.89 35.3006 9.04347 39.8173 11.848C44.7607 14.9168 48.4508 19.7044 50.3983 26.851C56.9613 54.9279 65.9996 83.049 72.7549 111.133C75.5719 122.242 77.8937 127.962 81.5438 130.409C84.7291 132.544 90.0032 132.999 98.3039 132.969C101.68 132.959 104.972 132.889 108.347 132.889H177.814C181.398 132.889 184.305 135.789 184.305 139.365C184.305 142.94 181.398 145.841 177.814 145.841H108.042C104.833 145.841 101.685 145.864 98.478 145.87C87.5291 145.899 80.2814 145.114 74.342 141.133C67.4606 136.522 63.8352 128.687 60.1863 114.268L37.873 30.2394C36.8647 26.5362 35.165 24.1877 32.9728 22.8269C30.6221 21.3677 27.4906 20.7534 23.8684 20.683L23.3819 20.7012H6.49045Z" fill="#484848"/>
<path d="M0 14.2258C0 10.6503 2.90663 7.75037 6.49045 7.75037H23.3819L24.0301 7.7828C29.9306 7.89 35.3006 9.04347 39.8173 11.848C44.7607 14.9168 48.4508 19.7043 50.3983 26.851C56.9613 54.9279 65.9996 83.049 72.7549 111.133C75.5719 122.242 77.8937 127.962 81.5438 130.409C84.7335 132.547 90.0186 133 98.3412 132.969C101.7 132.959 104.976 132.889 108.334 132.889H177.814C181.398 132.889 184.305 135.789 184.305 139.365H103.184C78.3556 139.801 72.9381 138.232 66.4738 112.7L44.1359 28.5452C41.1785 17.6925 33.3717 14.2843 23.3819 14.2258H0Z" fill="#333333"/>
</g>
<defs>
<clipPath id="clip0_292_2">
<rect width="203" height="185" fill="white"/>
</clipPath>
</defs>
</svg>
