<svg width="40" height="24" viewBox="0 0 40 24" fill="none" xmlns="http://www.w3.org/2000/svg">
<g clip-path="url(#clip0_277_19)">
<path d="M18.8999 12.4095V18.2677H17.3999V3.77954H21.2999C22.2499 3.77954 23.1499 4.22049 23.8499 5.03938C24.5499 5.79529 24.8999 6.92915 24.8999 8.126C24.8999 9.32285 24.5499 10.3937 23.8499 11.2126C23.1499 12.0315 22.2999 12.4725 21.2999 12.4725L18.8999 12.4095ZM18.8999 5.54332V10.5827H21.3999C21.9499 10.5827 22.4999 10.3307 22.8499 9.82679C23.6499 8.8819 23.6499 7.3071 22.8999 6.36222L22.8499 6.29923C22.4499 5.79529 21.9499 5.48033 21.3999 5.54332H18.8999Z" fill="#5F6368"/>
<path d="M28.3499 8.06299C29.4499 8.06299 30.2999 8.44094 30.9499 9.19685C31.5999 9.95275 31.8999 10.9606 31.8999 12.2205V18.2677H30.4999V16.8819H30.4499C29.8499 18.0157 28.9999 18.5827 27.9999 18.5827C27.1499 18.5827 26.3999 18.2677 25.7999 17.6378C25.2499 17.0079 24.8999 16.126 24.8999 15.1811C24.8999 14.1732 25.1999 13.3543 25.7999 12.7244C26.3999 12.0945 27.2499 11.8425 28.2499 11.8425C29.1499 11.8425 29.8499 12.0315 30.3999 12.4724V12.0315C30.3999 11.4016 30.1999 10.7716 29.7999 10.3937C29.3999 9.95275 28.8999 9.70078 28.3499 9.70078C27.4999 9.70078 26.8499 10.1417 26.3999 11.0236L25.0999 10.0157C25.8999 8.69291 26.9499 8.06299 28.3499 8.06299ZM26.4499 15.2441C26.4499 15.748 26.6499 16.189 26.9499 16.4409C27.2999 16.7559 27.6999 16.9449 28.0999 16.9449C28.6999 16.9449 29.2999 16.6299 29.7499 16.063C30.2499 15.4961 30.4999 14.8031 30.4999 14.0472C30.0499 13.6063 29.3999 13.3543 28.5499 13.3543C27.9499 13.3543 27.4499 13.5433 27.0499 13.9213C26.6499 14.2362 26.4499 14.6772 26.4499 15.2441Z" fill="#5F6368"/>
<path d="M39.9999 8.37796L35.0499 22.6772H33.5499L35.3999 17.7008L32.1499 8.44095H33.7499L36.0999 15.5591H36.1499L38.4499 8.44095H39.9999V8.37796Z" fill="#5F6368"/>
<path d="M12.9501 11.1496C12.9501 10.5827 12.9001 10.0158 12.8501 9.44882H6.6001V12.6614H10.1501C10.0001 13.6693 9.5501 14.6142 8.8501 15.1811V17.2598H11.0001C12.2501 15.811 12.9501 13.6693 12.9501 11.1496Z" fill="#4285F4"/>
<path d="M6.59995 19.2756C8.39995 19.2756 9.89995 18.5197 11 17.2598L8.84995 15.1811C8.24995 15.685 7.49995 16 6.59995 16C4.89995 16 3.39995 14.5512 2.89995 12.5354H0.699951V14.6772C1.84995 17.5118 4.09995 19.2756 6.59995 19.2756Z" fill="#34A853"/>
<path d="M2.90005 12.5354C2.60005 11.5275 2.60005 10.3937 2.90005 9.32282V7.18109H0.700049C-0.249951 9.5118 -0.249951 12.2835 0.700049 14.6772L2.90005 12.5354Z" fill="#FBBC04"/>
<path d="M6.6 5.92125C7.55 5.92125 8.45 6.3622 9.15 7.1811L11.05 4.78739C9.85 3.40157 8.25 2.58267 6.65 2.64566C4.15 2.64566 1.85 4.40944 0.75 7.24409L2.95 9.38582C3.4 7.37007 4.9 5.92125 6.6 5.92125Z" fill="#EA4335"/>
</g>
<defs>
<clipPath id="clip0_277_19">
<rect width="40" height="24" fill="white"/>
</clipPath>
</defs>
</svg>
