<svg width="40" height="24" viewBox="0 0 40 24" fill="none" xmlns="http://www.w3.org/2000/svg">
<g clip-path="url(#clip0_277_32)">
<path d="M39.8665 7.07788C39.5019 5.09034 38.5123 3.66355 37.3534 3.66355H37.3274C36.5722 3.66355 35.8918 4.26791 35.4068 5.23364C34.9218 4.26791 34.2415 3.66355 33.4862 3.66355H33.4635C32.7994 3.66355 32.1907 4.13084 31.7252 4.8972V4.5109C31.7089 4.11838 31.5429 3.81308 31.3346 3.81308H29.5507C29.3326 3.81308 29.1568 4.14953 29.1568 4.56698V23.0966C29.1568 23.514 29.3326 23.8505 29.5507 23.8505H31.3346C31.5331 23.8505 31.6991 23.5639 31.7219 23.2025V9.90031C31.7219 9.85047 31.7219 9.81308 31.7252 9.76947C31.7545 9.17757 31.9823 8.68536 32.3404 8.62928H32.6692C32.8189 8.65421 32.9459 8.75389 33.0435 8.90966C33.1998 9.14642 33.2844 9.50779 33.2844 9.90654L33.2909 23.1402C33.2909 23.5576 33.4667 23.9003 33.6848 23.9003H35.4687C35.6803 23.9003 35.8495 23.5826 35.8593 23.1838V9.89408C35.8593 9.45794 35.9635 9.05919 36.149 8.82866C36.2402 8.71651 36.3508 8.64174 36.4778 8.61682H36.8066C37.1939 8.67913 37.425 9.23988 37.425 9.89408L37.4316 23.1153C37.4316 23.5327 37.6073 23.8692 37.8254 23.8692H39.6093C39.8176 23.8692 39.9902 23.5576 40.0032 23.1651V8.66667C39.9934 7.85047 39.9381 7.4704 39.8665 7.07788ZM27.7961 3.86293H26.7773V0.697819C26.7773 0.691589 26.7773 0.691589 26.7773 0.685358C26.7773 0.311526 26.6178 0 26.4159 0C26.3931 0 26.3704 0.00623053 26.3476 0.0124611C25.218 0.604361 25.4426 3.60125 23.3788 3.8567H23.1803C23.151 3.8567 23.1217 3.86293 23.0924 3.87539C22.9198 3.95639 22.7864 4.25545 22.7864 4.61682V8.03115C22.7864 8.4486 22.9622 8.78505 23.1803 8.78505H24.2545L24.2512 23.2523C24.2512 23.6636 24.427 24 24.6418 24H26.4062C26.621 24 26.7968 23.6636 26.7968 23.2523V8.78505H27.7961C28.011 8.78505 28.19 8.44237 28.19 8.03115V4.61682C28.19 4.19938 28.0142 3.86293 27.7961 3.86293Z" fill="#00BAF2"/>
<path d="M21.3835 3.86292H19.5996C19.3848 3.86292 19.2057 4.19937 19.2057 4.61681V11.676C19.2025 12.1121 19.0169 12.4611 18.7891 12.4611H18.0436C17.8125 12.4611 17.6237 12.1059 17.6237 11.6635L17.6172 4.61681C17.6172 4.19937 17.4414 3.86292 17.2233 3.86292H15.4395C15.2214 3.86292 15.0456 4.19937 15.0456 4.61681V12.3489C15.0456 15.2835 16.1393 17.3832 17.6758 17.3832C17.6758 17.3832 18.8281 17.3832 18.8639 17.3956C19.0723 17.4392 19.2318 17.7757 19.2318 18.1869C19.2318 18.5919 19.0755 18.9283 18.8672 18.9782C18.8574 18.9782 18.8477 18.9844 18.8379 18.9906L16.2305 19.0093C16.0124 19.0093 15.8366 19.3458 15.8366 19.7632V23.1713C15.8366 23.5888 16.0124 23.9252 16.2305 23.9252H19.1439C20.6803 23.9252 21.7741 21.8318 21.7741 18.8972V4.61681C21.7773 4.19937 21.6016 3.86292 21.3835 3.86292ZM11.2402 3.88161H8.76628C8.54818 3.88161 8.36914 4.19937 8.36914 4.58566V5.91276C8.36914 5.91899 8.36914 5.93146 8.36914 5.93769C8.36914 5.95015 8.36914 5.95638 8.36914 5.96884V7.78815C8.36914 8.19937 8.55794 8.54205 8.78906 8.54205H11.1458C11.3314 8.59812 11.4779 8.85981 11.5007 9.26479V9.70716C11.4811 10.0934 11.3346 10.3738 11.1556 10.405H9.99024C8.4375 10.405 7.33398 12.3801 7.33398 15.1464V19.1153C7.33398 21.8692 8.28451 23.8255 9.82422 23.8255H13.0566C13.6361 23.8255 14.1081 22.9844 14.1081 21.9501V9.00311C14.1081 5.86292 13.2617 3.88161 11.2402 3.88161ZM11.5234 18.1246V18.6604C11.5234 18.704 11.5202 18.7477 11.5169 18.785C11.5137 18.8224 11.5072 18.8598 11.5007 18.8972C11.4453 19.1963 11.2891 19.4143 11.1035 19.4143H10.3613C10.1302 19.4143 9.94141 19.0779 9.94141 18.6604V18.0187C9.94141 18.0125 9.94141 18 9.94141 17.9938V16.2804V15.7445V15.7383C9.94141 15.3271 10.1302 14.9906 10.3613 14.9906H11.1035C11.3346 14.9906 11.5234 15.3271 11.5234 15.7445V18.1246ZM4.28385 3.85669H0.38737C0.172526 3.85669 0 4.19314 0 4.59812V7.94392C0 7.95015 0 7.95638 0 7.96261C0 7.9813 0 7.99376 0 8.00622V23.1402C0 23.5514 0.159505 23.8878 0.361328 23.8941H2.17773C2.39583 23.8941 2.57161 23.5576 2.57161 23.1402L2.57812 17.9564H4.28385C5.70964 17.9564 6.70573 16.0623 6.70573 13.3146V8.50466C6.70573 5.76323 5.70964 3.85669 4.28385 3.85669ZM4.1276 10.1121V12.2181C4.1276 12.6604 3.94206 13.0218 3.71094 13.0218H2.58138V8.80373H3.71094C3.94206 8.80373 4.1276 9.15887 4.1276 9.60124V10.1121Z" fill="#20336B"/>
</g>
<defs>
<clipPath id="clip0_277_32">
<rect width="40" height="24" fill="white"/>
</clipPath>
</defs>
</svg>
