<svg width="30" height="30" viewBox="0 0 30 30" fill="none" xmlns="http://www.w3.org/2000/svg">
<path d="M12.5999 1.8C6.96084 1.8 2.3999 6.36094 2.3999 12C2.3999 17.6391 6.96084 22.2 12.5999 22.2C14.6132 22.2 16.4765 21.6094 18.0562 20.6063L25.4249 27.975L27.9749 25.425L20.6999 18.1688C22.0077 16.4531 22.7999 14.3273 22.7999 12C22.7999 6.36094 18.239 1.8 12.5999 1.8ZM12.5999 4.2C16.9194 4.2 20.3999 7.68047 20.3999 12C20.3999 16.3195 16.9194 19.8 12.5999 19.8C8.28037 19.8 4.7999 16.3195 4.7999 12C4.7999 7.68047 8.28037 4.2 12.5999 4.2Z" fill="black"/>
</svg>
