<svg width="24" height="24" viewBox="0 0 24 24" fill="none" xmlns="http://www.w3.org/2000/svg">
<g clip-path="url(#clip0_277_16)">
<path d="M23.6767 14.7574C25.1995 8.30859 21.2061 1.84632 14.7573 0.323544C8.30844 -1.19923 1.84617 2.79413 0.323393 9.24296C-1.19938 15.6918 2.79398 22.1541 9.24281 23.6768C15.6916 25.1996 22.1539 21.2063 23.6767 14.7574Z" fill="#5F259F"/>
<path d="M17.4452 8.86889C17.4452 8.39977 17.0432 7.99735 16.5741 7.99735H14.9652L11.2791 3.77466C10.9437 3.37261 10.4076 3.23846 9.87142 3.37261L8.59783 3.77466C8.39664 3.84169 8.32956 4.11 8.46367 4.24374L12.4855 8.06442H6.38612C6.18489 8.06442 6.05078 8.19853 6.05078 8.39977V9.06971C6.05078 9.53921 6.4532 9.94121 6.92228 9.94121H7.86048V13.1587C7.86048 15.5716 9.13408 16.9789 11.2791 16.9789C11.9491 16.9789 12.4856 16.9118 13.1555 16.644V18.7886C13.1555 19.3919 13.625 19.8614 14.2283 19.8614H15.1665C15.3677 19.8614 15.5685 19.6602 15.5685 19.4589V9.87413H17.1104C17.3116 9.87413 17.4453 9.74002 17.4453 9.53921V8.86889H17.4452ZM13.1555 14.633C12.7535 14.8342 12.2173 14.9012 11.8153 14.9012C10.7425 14.9012 10.2064 14.3651 10.2064 13.1586V9.94116H13.1555V14.633Z" fill="white"/>
</g>
<defs>
<clipPath id="clip0_277_16">
<rect width="24" height="24" fill="white"/>
</clipPath>
</defs>
</svg>
